<?xml version="1.0" standalone="no"?>
<!DOCTYPE svg PUBLIC "-//W3C//DTD SVG 20010904//EN"
 "http://www.w3.org/TR/2001/REC-SVG-20010904/DTD/svg10.dtd">
<svg version="1.0" xmlns="http://www.w3.org/2000/svg"
 width="300.000000pt" height="300.000000pt" viewBox="0 0 300.000000 300.000000"
 preserveAspectRatio="xMidYMid meet">
<metadata>
Created by potrace 1.10, written by Peter Selinger 2001-2011
</metadata>
<g transform="translate(-85.000000,400.000000) scale(0.160000,-0.160000)"
fill="white" stroke="none">
<path d="M682 2250 c-112 -40 -152 -82 -152 -160 0 -87 88 -203 241 -317 l89
-65 0 -180 c0 -177 0 -179 -25 -203 -18 -18 -35 -25 -65 -25 -29 0 -40 -4 -40
-15 0 -13 29 -15 200 -15 171 0 200 2 200 15 0 11 -11 15 -43 15 -55 0 -76 16
-87 65 -9 40 -14 265 -6 265 3 0 44 -19 93 -43 48 -24 107 -50 131 -60 l42
-17 0 -80 c0 -73 -3 -83 -25 -105 -13 -14 -29 -25 -35 -25 -5 0 -10 -7 -10
-15 0 -13 22 -15 135 -15 113 0 135 2 135 15 0 11 -12 15 -44 15 -69 0 -86 20
-93 112 l-6 76 99 -33 c55 -18 124 -38 155 -45 l56 -12 27 -64 c16 -35 34 -64
41 -64 7 0 22 23 34 51 l21 51 37 -7 c21 -4 92 -11 158 -14 l120 -6 -25 -22
c-17 -17 -36 -23 -67 -23 -32 0 -43 -4 -43 -15 0 -13 29 -15 200 -15 171 0
200 2 200 15 0 11 -11 15 -40 15 -30 0 -47 7 -65 25 -14 13 -25 28 -25 33 0 5
20 17 45 26 50 20 100 71 109 113 9 40 -15 111 -59 177 -21 31 -39 55 -41 53
-2 -1 8 -25 22 -52 117 -229 -263 -307 -771 -160 -209 61 -446 168 -604 273
-107 71 -215 172 -252 237 -54 94 -30 185 56 217 19 6 35 16 35 20 0 4 -1 8
-2 7 -2 0 -27 -9 -56 -19z m-79 -80 c-11 -23 -12 -38 -5 -59 6 -16 8 -31 6
-34 -22 -22 154 -224 245 -281 21 -13 45 -32 54 -41 10 -9 17 -14 17 -10 0 3
15 -4 32 -17 48 -34 251 -131 373 -178 11 -4 36 -14 55 -23 34 -15 35 -16 8
-16 -16 -1 -28 4 -28 12 0 7 -3 8 -8 2 -4 -5 -18 -16 -31 -24 -22 -12 -26 -11
-40 7 -9 11 -47 35 -86 52 -38 17 -98 45 -132 62 -74 37 -93 33 -93 -20 0 -21
-6 -44 -12 -51 -11 -10 -10 -12 0 -9 20 5 23 -121 4 -144 -10 -12 -11 -18 -4
-18 7 0 11 -3 10 -7 -1 -5 4 -21 11 -37 6 -16 8 -32 4 -36 -4 -3 -36 -4 -70
-2 -62 4 -62 4 -48 26 8 12 16 34 17 49 1 15 6 27 11 27 4 0 3 9 -3 20 -6 12
-8 31 -4 43 5 12 7 26 5 32 -1 5 -5 54 -7 110 -3 55 -6 105 -8 111 -3 6 -48
43 -100 83 -57 43 -94 76 -90 83 4 6 3 8 -3 5 -11 -7 -61 46 -100 104 -29 44
-43 142 -23 154 9 6 11 4 5 -5 -5 -9 -4 -11 4 -6 6 4 8 12 5 18 -5 8 29 46 43
48 1 0 -5 -14 -14 -30z m1726 -646 c-3 -57 -24 -84 -88 -115 -59 -28 -67 -41
-46 -82 8 -16 15 -31 15 -31 0 -2 -134 1 -143 3 -4 0 -3 11 4 22 18 34 -6 47
-91 50 -41 1 -81 4 -87 7 -22 7 -14 25 8 19 17 -4 19 -3 10 6 -19 19 -12 31 7
14 10 -10 27 -17 38 -16 17 0 16 1 -3 9 -30 12 -29 18 2 12 31 -6 33 -29 3
-35 l-23 -4 22 -2 c13 0 28 8 35 19 14 22 48 27 48 8 0 -9 2 -10 8 -2 4 6 31
15 60 19 89 12 181 68 203 123 13 35 20 26 18 -24z m-835 -35 c6 -5 16 -3 25
3 13 10 14 10 4 -2 -7 -8 -13 -23 -14 -34 -1 -18 -2 -17 -9 4 -4 14 -8 19 -9
13 -1 -7 -8 -13 -17 -13 -8 0 -13 4 -10 9 3 5 -2 15 -11 22 -14 12 -15 11 -10
-11 4 -14 4 -20 1 -14 -3 7 -15 10 -27 8 -21 -4 -21 -4 -2 6 19 9 18 10 -5 9
-58 -2 -71 5 -20 11 58 7 89 4 104 -11z m-204 -55 c0 -24 -3 -44 -7 -44 -5 0
-8 22 -8 49 0 27 3 47 8 44 4 -2 7 -24 7 -49z m270 25 c0 -11 -5 -17 -10 -14
-6 4 -8 11 -5 16 4 5 1 9 -4 9 -6 0 -11 -7 -11 -17 0 -9 -3 -14 -6 -10 -11 10
4 37 21 37 8 0 15 -9 15 -21z m30 -15 c0 -14 -4 -23 -10 -19 -5 3 -10 15 -10
26 0 10 5 19 10 19 6 0 10 -12 10 -26z m30 -14 c4 0 11 7 14 16 9 23 29 5 24
-21 -4 -16 -1 -22 9 -18 7 3 13 15 14 27 1 19 2 19 9 -4 l8 -25 1 25 c1 17 4
21 12 13 17 -17 1 -56 -19 -48 -12 4 -14 3 -7 -4 6 -6 20 -8 33 -5 17 5 21 11
16 30 -5 19 -2 23 15 21 27 -2 28 -33 1 -47 -11 -6 -27 -24 -35 -41 -19 -36
-27 -32 -55 26 -15 30 -28 45 -41 45 -14 0 -19 7 -18 28 2 23 2 24 6 5 2 -13
8 -23 13 -23z m189 -15 c1 17 3 17 11 5 11 -17 -3 -36 -19 -26 -6 4 -11 17
-10 29 1 20 2 20 9 -3 7 -21 8 -22 9 -5z m62 -16 c-13 -11 -28 -19 -35 -18 -8
0 -8 2 0 5 7 3 10 13 7 23 -4 16 0 18 23 13 l27 -5 -22 -18z m-566 -49 c4 -16
11 -32 16 -35 20 -13 7 -20 -35 -20 l-44 0 19 24 c11 13 19 32 19 42 0 30 18
22 25 -11z"/>
<path d="M899 1467 c-12 -22 -12 -22 10 -3 11 11 24 16 28 13 3 -4 1 -7 -5 -7
-7 0 -12 -9 -12 -20 0 -31 27 -24 32 8 3 23 0 28 -19 30 -14 1 -27 -6 -34 -21z"/>
<path d="M900 1435 c0 -6 5 -16 12 -23 9 -9 9 -12 0 -12 -22 0 -12 -16 11 -17
12 0 16 1 9 4 -10 4 -7 9 9 17 12 6 24 18 26 26 3 10 1 9 -7 -2 -6 -10 -17
-18 -25 -18 -8 0 -19 8 -24 18 -6 9 -11 12 -11 7z"/>
<path d="M1641 1434 c0 -11 3 -14 6 -6 3 7 2 16 -1 19 -3 4 -6 -2 -5 -13z"/>
<path d="M770 2195 c0 -6 16 -17 36 -24 45 -16 54 -41 54 -151 l0 -89 64 -45
c35 -26 65 -46 67 -46 2 0 3 67 1 149 l-3 149 57 7 c106 14 189 -34 220 -127
32 -99 4 -203 -69 -255 l-29 -21 47 -21 47 -21 49 25 c156 79 171 311 26 416
-68 49 -119 58 -355 61 -143 2 -212 0 -212 -7z m414 -19 c27 -4 65 -14 85 -22
20 -8 37 -14 38 -12 5 8 74 -69 88 -98 19 -40 22 -129 5 -180 -16 -50 -47 -94
-66 -94 -8 0 -13 -4 -10 -9 3 -4 -13 -13 -35 -20 -32 -10 -44 -10 -55 0 -13
10 -11 16 9 38 42 45 59 90 59 156 0 68 -30 141 -76 184 -52 49 -153 65 -221
37 l-35 -15 -1 -93 c-1 -51 -1 -97 0 -102 1 -6 0 -20 -4 -33 -6 -26 -21 -22
-62 17 -21 18 -23 30 -23 108 0 62 -4 94 -15 108 -19 25 -19 32 2 36 30 5 266
1 317 -6z"/>
<path d="M2060 2190 c-30 -57 -290 -633 -287 -637 3 -2 16 -5 31 -6 25 -2 32
9 134 233 59 129 113 246 119 260 9 20 12 -32 10 -238 l-2 -262 25 0 c14 0 44
9 68 20 l42 19 0 270 c0 148 3 277 6 286 9 22 57 45 94 45 17 0 30 5 30 13 0
20 -259 17 -270 -3z m150 -19 c0 -4 -7 -17 -16 -29 -13 -19 -16 -66 -19 -285
l-3 -262 -24 -12 c-12 -7 -31 -13 -40 -13 -17 0 -18 18 -18 231 0 241 -6 283
-37 257 -18 -14 -93 -168 -93 -189 0 -11 -2 -11 -9 0 -9 14 33 118 52 132 5 3
8 9 7 13 -3 8 49 136 62 153 15 19 138 23 138 4z m-288 -365 c-12 -24 -24 -56
-28 -70 -3 -14 -10 -26 -15 -26 -5 0 -9 -6 -9 -13 0 -8 -13 -38 -30 -68 -32
-59 -42 -50 -11 10 36 68 81 168 81 179 0 7 5 12 10 12 6 0 10 8 10 17 0 9 3
14 6 10 4 -3 -3 -26 -14 -51z"/>
<path d="M1499 1910 c-3 -39 -13 -82 -25 -105 -18 -34 -19 -43 -7 -65 7 -14
24 -50 38 -81 l25 -57 80 -19 c44 -11 80 -19 80 -18 0 1 -37 82 -83 181 -45
98 -88 190 -93 204 -10 22 -12 17 -15 -40z m41 -71 c0 -5 23 -57 51 -114 28
-57 49 -108 47 -113 -1 -4 -22 -4 -45 0 -38 8 -70 37 -78 72 -1 6 -9 27 -17
46 -11 23 -13 41 -7 57 5 13 13 35 19 49 9 23 30 26 30 3z"/>
<path d="M1720 1606 c0 -2 8 -10 18 -17 15 -13 16 -12 3 4 -13 16 -21 21 -21
13z"/>
<path d="M1713 1580 c9 -6 17 -21 16 -33 0 -21 -1 -21 -9 -2 -7 16 -9 17 -9 3
-1 -24 18 -33 26 -12 7 19 -7 46 -28 51 -8 3 -7 0 4 -7z"/>
<path d="M1957 1499 c7 -7 15 -10 18 -7 3 3 -2 9 -12 12 -14 6 -15 5 -6 -5z"/>
<path d="M1153 1485 c0 -8 4 -12 9 -9 5 3 6 10 3 15 -9 13 -12 11 -12 -6z"/>
<path d="M1045 1480 c-3 -5 -1 -10 4 -10 6 0 11 5 11 10 0 6 -2 10 -4 10 -3 0
-8 -4 -11 -10z"/>
<path d="M1377 1410 c-3 -11 -1 -20 4 -20 5 0 9 9 9 20 0 11 -2 20 -4 20 -2 0
-6 -9 -9 -20z"/>
<path d="M737 890 c-92 -4 -170 -10 -173 -13 -3 -3 16 -9 43 -14 67 -11 1676
-10 1738 1 l50 10 -55 8 c-77 11 -1398 18 -1603 8z m1353 -10 l75 -3 -75 -7
c-101 -10 -1104 -12 -1205 -3 l-80 8 65 5 c65 5 1080 5 1220 0z"/>
</g>
</svg>
